<svg width="34" height="34" viewBox="0 0 34 34" fill="none" xmlns="http://www.w3.org/2000/svg">
<path d="M8.65271 30.7061C8.65271 30.1375 8.84225 29.5215 8.60532 29.095C8.36839 28.7159 7.70499 28.5737 7.23113 28.3368C4.71967 27.01 2.77685 25.1146 1.78174 22.461C1.35527 21.4185 1.21311 20.2338 1.02357 19.0966C0.834021 17.9593 0.786635 16.822 0.739249 15.6848C0.644477 13.2207 0.928793 10.7566 1.45004 8.33993C1.73435 6.96574 2.44514 5.78109 3.29809 4.7386C4.6249 3.08009 6.23602 1.7059 8.27362 1.04249C9.45827 0.663404 10.6903 0.47386 11.9223 0.331702C13.5808 0.142158 15.2867 0 16.9453 0C18.6038 0 20.2623 0.142158 21.9208 0.284316C23.0107 0.379088 24.1005 0.568632 25.1904 0.805562C27.0859 1.23204 28.6496 2.32191 30.0238 3.64872C31.3506 4.92814 32.4405 6.44449 32.8196 8.29255C33.3882 10.9935 33.7199 13.6945 33.483 16.4429C33.3408 18.1014 33.1513 19.7126 32.8669 21.3711C32.5352 23.2665 31.4928 24.7355 30.1659 26.0623C28.7918 27.4839 27.228 28.6211 25.2378 29.0476C23.7214 29.3793 22.1577 29.5215 20.6414 29.711C19.8358 29.8058 18.9829 29.8532 18.1299 29.8532C17.1822 29.8532 16.1871 29.8058 15.2394 29.8058C15.0024 29.8058 14.6707 29.9479 14.4812 30.1375C13.3913 31.2274 12.3962 32.3172 11.3537 33.4071C10.5955 34.1653 9.55304 34.2127 8.98441 33.4545C8.74748 33.1228 8.65271 32.6489 8.60532 32.2699C8.60532 31.7012 8.65271 31.2274 8.65271 30.7061ZM9.97952 29.2372C9.97952 29.711 9.97952 30.1849 9.97952 30.6587C9.97952 31.1326 9.97952 31.6065 9.97952 32.0803C9.97952 32.2225 10.0743 32.412 10.1691 32.4594C10.2638 32.5068 10.4534 32.3646 10.5481 32.2699C10.6429 32.2225 10.6903 32.1277 10.7851 32.0329C12.3962 30.3744 13.9599 28.7633 15.5711 27.1522C15.7606 26.9626 16.0449 26.8205 16.3292 26.8205C18.6038 26.8205 20.8783 26.6309 23.1528 26.3466C24.4796 26.1571 25.7117 25.8254 26.8015 24.9724C28.2231 23.8352 29.5499 22.6031 29.8816 20.7551C30.2133 19.0018 30.4029 17.2011 30.4976 15.4004C30.545 13.9315 30.3555 12.4151 30.2133 10.9462C30.0712 9.38243 29.6921 7.86607 28.5548 6.58665C27.4176 5.30723 26.1381 4.12258 24.3849 3.79088C22.679 3.45918 20.9731 3.26963 19.2198 3.17486C16.3766 3.0327 13.4861 3.12748 10.6903 3.64872C7.6576 4.16997 5.57262 5.92325 4.53013 8.76641C4.05627 10.0458 3.9615 11.4674 3.86672 12.8416C3.77195 14.5949 3.81934 16.3956 3.9615 18.1488C4.00888 19.1913 4.15104 20.2812 4.53013 21.2763C5.38308 23.5982 7.08897 25.1146 9.3635 26.0149C9.78997 26.2044 9.97952 26.394 9.97952 26.8679C9.93213 27.5786 9.97952 28.4316 9.97952 29.2372Z" fill="white"/>
</svg>
