<svg width="33" height="32" viewBox="0 0 33 32" fill="none" xmlns="http://www.w3.org/2000/svg">
<path d="M0.378662 32L2.63431 23.4124C1.37115 21.0621 0.649339 18.4407 0.649339 15.8192C0.649339 7.05085 7.77717 0 16.4388 0C25.1005 0 32.2283 7.05085 32.2283 15.8192C32.2283 24.4972 25.1907 31.6384 16.4388 31.6384C13.8223 31.6384 11.296 31.0056 8.95011 29.7401L0.378662 32ZM9.40124 26.4859L9.94259 26.8475C11.9276 28.0226 14.1832 28.6554 16.4388 28.6554C23.4764 28.6554 29.2509 22.8701 29.2509 15.8192C29.2509 8.76836 23.4764 2.98305 16.4388 2.98305C9.40123 2.98305 3.62679 8.76836 3.62679 15.8192C3.62679 18.1695 4.25837 20.4294 5.52153 22.4181L5.88243 22.9605L4.61927 27.7514L9.40124 26.4859Z" fill="white"/>
</svg>
