<svg width="33" height="34" viewBox="0 0 33 34" fill="none" xmlns="http://www.w3.org/2000/svg">
<path d="M7.93152 30.7061C7.93152 30.1375 8.12106 29.5215 7.88413 29.095C7.6472 28.7159 6.9838 28.5737 6.50994 28.3368C3.99848 27.01 2.05566 25.1146 1.06055 22.461C0.634076 21.4185 0.491918 20.2338 0.302374 19.0966C0.11283 17.9593 0.0654436 16.822 0.0180576 15.6848C-0.0767143 13.2207 0.207602 10.7566 0.728847 8.33993C1.01316 6.96574 1.72395 5.78109 2.5769 4.7386C3.90371 3.08009 5.51483 1.7059 7.55243 1.04249C8.73708 0.663404 9.96911 0.47386 11.2011 0.331702C12.8597 0.142158 14.5656 0 16.2241 0C17.8826 0 19.5411 0.142158 21.1996 0.284316C22.2895 0.379088 23.3793 0.568632 24.4692 0.805562C26.3647 1.23204 27.9284 2.32191 29.3026 3.64872C30.6294 4.92814 31.7193 6.44449 32.0984 8.29255C32.667 10.9935 32.9987 13.6945 32.7618 16.4429C32.6196 18.1014 32.4301 19.7126 32.1458 21.3711C31.8141 23.2665 30.7716 24.7355 29.4448 26.0623C28.0706 27.4839 26.5068 28.6211 24.5166 29.0476C23.0003 29.3793 21.4365 29.5215 19.9202 29.711C19.1146 29.8058 18.2617 29.8532 17.4087 29.8532C16.461 29.8532 15.4659 29.8058 14.5182 29.8058C14.2812 29.8058 13.9495 29.9479 13.76 30.1375C12.6701 31.2274 11.675 32.3172 10.6325 33.4071C9.87434 34.1653 8.83185 34.2127 8.26322 33.4545C8.02629 33.1228 7.93152 32.6489 7.88413 32.2699C7.88413 31.7012 7.93152 31.2274 7.93152 30.7061ZM9.25832 29.2372C9.25832 29.711 9.25832 30.1849 9.25832 30.6587C9.25832 31.1326 9.25832 31.6065 9.25832 32.0803C9.25832 32.2225 9.3531 32.412 9.44787 32.4594C9.54264 32.5068 9.73218 32.3646 9.82696 32.2699C9.92173 32.2225 9.96911 32.1277 10.0639 32.0329C11.675 30.3744 13.2387 28.7633 14.8499 27.1522C15.0394 26.9626 15.3237 26.8205 15.608 26.8205C17.8826 26.8205 20.1571 26.6309 22.4316 26.3466C23.7584 26.1571 24.9905 25.8254 26.0803 24.9724C27.5019 23.8352 28.8287 22.6031 29.1604 20.7551C29.4921 19.0018 29.6817 17.2011 29.7765 15.4004C29.8238 13.9315 29.6343 12.4151 29.4921 10.9462C29.35 9.38243 28.9709 7.86607 27.8336 6.58665C26.6964 5.30723 25.4169 4.12258 23.6637 3.79088C21.9578 3.45918 20.2519 3.26963 18.4986 3.17486C15.6554 3.0327 12.7649 3.12748 9.96911 3.64872C6.93641 4.16997 4.85143 5.92325 3.80894 8.76641C3.33508 10.0458 3.2403 11.4674 3.14553 12.8416C3.05076 14.5949 3.09815 16.3956 3.2403 18.1488C3.28769 19.1913 3.42985 20.2812 3.80894 21.2763C4.66188 23.5982 6.36778 25.1146 8.64231 26.0149C9.06878 26.2044 9.25832 26.394 9.25832 26.8679C9.21094 27.5786 9.25832 28.4316 9.25832 29.2372Z" fill="white"/>
<path d="M17.7404 19.1442C17.9299 19.0495 18.1669 18.9547 18.3564 18.8125C18.5933 18.623 18.7355 18.3387 18.9724 18.1491C19.4463 17.6753 20.0149 17.4857 20.5836 17.8174C21.626 18.5282 22.6685 19.239 23.6636 20.0446C24.0427 20.3289 24.1849 20.7554 23.948 21.2292C23.4267 22.4139 22.6685 23.3616 21.3417 23.7407C21.1522 23.7881 20.9626 23.7881 20.7731 23.7407C16.3662 22.1769 12.6701 19.7129 10.206 15.6377C9.35307 14.2635 8.73706 12.7471 8.02627 11.2782C7.64718 10.5674 7.78934 9.90397 8.21581 9.24057C8.73706 8.4824 9.40046 7.91376 10.206 7.53468C10.6799 7.29775 11.2011 7.34513 11.5328 7.77161C12.291 8.71933 13.0018 9.71443 13.6652 10.7569C14.1391 11.5151 13.9021 12.1311 13.2387 12.6997C13.0966 12.7945 13.0018 12.8893 12.8596 12.9841C12.4332 13.3158 12.3384 13.7422 12.5279 14.2161C13.3335 16.4432 14.8025 18.1017 17.077 18.9547C17.2665 19.0495 17.4561 19.0495 17.7404 19.1442Z" fill="white"/>
<path d="M24.5643 14.7842C24.5643 14.9264 24.6591 15.1159 24.6117 15.2581C24.5169 15.4476 24.3748 15.732 24.1852 15.7794C24.0431 15.8267 23.7114 15.5424 23.664 15.4003C23.5218 14.9264 23.5218 14.4525 23.4744 13.9787C23.2849 11.1829 21.1525 8.5293 18.4515 7.86589C17.8829 7.72374 17.2669 7.67635 16.6508 7.58158C16.5087 7.58158 16.4139 7.53419 16.2718 7.53419C15.9401 7.48681 15.7031 7.39203 15.7031 7.01295C15.7505 6.58647 16.0822 6.4917 16.4139 6.4917C20.0626 6.63386 23.1901 8.71884 24.2326 12.4623C24.4221 13.2205 24.5169 14.0261 24.6117 14.7842C24.6117 14.7369 24.6117 14.7842 24.5643 14.7842Z" fill="white"/>
<path d="M17.6456 10.7573C19.2567 10.8047 20.4888 12.1789 20.394 13.6953C20.394 14.027 20.2518 14.3113 19.9201 14.2639C19.7306 14.2165 19.541 13.9796 19.3515 13.79C19.3041 13.7426 19.3515 13.6479 19.3515 13.6005C19.1146 12.3684 18.7829 12.0367 17.5034 11.7998C17.1717 11.7524 16.9348 11.5629 16.9348 11.2312C16.9822 10.8995 17.2191 10.7573 17.5508 10.7573C17.6456 10.7573 17.693 10.7573 17.6456 10.7573Z" fill="white"/>
</svg>
