<svg width="33" height="34" fill="none" xmlns="http://www.w3.org/2000/svg"><path d="M7.932 30.706c0-.569.19-1.184-.048-1.611-.237-.38-.9-.521-1.374-.758-2.512-1.327-4.454-3.222-5.45-5.876-.426-1.042-.568-2.227-.758-3.364-.19-1.138-.237-2.275-.284-3.412-.095-2.464.19-4.928.71-7.345.285-1.374.996-2.559 1.849-3.601C3.904 3.08 5.515 1.706 7.552 1.042 8.737.663 9.97.474 11.202.332 12.86.142 14.565 0 16.223 0c1.659 0 3.317.142 4.976.284 1.09.095 2.18.285 3.27.522 1.895.426 3.458 1.516 4.833 2.843 1.326 1.28 2.416 2.795 2.795 4.644.569 2.7.9 5.402.664 8.15a58.338 58.338 0 01-.616 4.928c-.332 1.896-1.374 3.364-2.701 4.691-1.374 1.422-2.938 2.56-4.928 2.986-1.517.331-3.08.474-4.597.663-.805.095-1.658.142-2.511.142-.948 0-1.943-.047-2.89-.047-.238 0-.57.142-.759.331-1.09 1.09-2.085 2.18-3.127 3.27-.759.758-1.801.806-2.37.048-.237-.332-.331-.806-.379-1.185 0-.569.048-1.043.048-1.564zm1.326-1.469v2.843c0 .142.095.332.19.38.095.047.284-.095.379-.19.095-.048.142-.142.237-.237 1.611-1.659 3.175-3.27 4.786-4.88.19-.19.474-.332.758-.332 2.275 0 4.55-.19 6.824-.474 1.326-.19 2.559-.522 3.648-1.375 1.422-1.137 2.749-2.369 3.08-4.217.332-1.753.522-3.554.616-5.355.048-1.469-.142-2.985-.284-4.454-.142-1.564-.521-3.08-1.658-4.36-1.138-1.279-2.417-2.463-4.17-2.795a37.488 37.488 0 00-5.165-.616c-2.844-.142-5.734-.048-8.53.474-3.033.521-5.118 2.274-6.16 5.117-.474 1.28-.569 2.701-.663 4.076a39.692 39.692 0 00.094 5.307c.048 1.042.19 2.132.569 3.127.853 2.322 2.559 3.839 4.833 4.739.427.19.616.379.616.853-.047.71 0 1.564 0 2.37z" fill="#fff"/><path d="M17.74 19.144c.19-.095.427-.19.616-.331.237-.19.38-.474.616-.664.474-.474 1.043-.663 1.612-.332 1.042.711 2.085 1.422 3.08 2.228.379.284.52.71.284 1.184-.521 1.185-1.28 2.133-2.606 2.512-.19.047-.38.047-.569 0-4.407-1.564-8.103-4.028-10.567-8.103-.853-1.374-1.469-2.89-2.18-4.36-.379-.71-.237-1.374.19-2.037a4.932 4.932 0 011.99-1.706c.474-.237.995-.19 1.327.237a33.957 33.957 0 012.132 2.985c.474.758.237 1.374-.426 1.943-.142.095-.237.19-.38.284-.426.332-.52.758-.331 1.232.806 2.227 2.274 3.886 4.549 4.739.19.095.38.095.663.19zm6.824-4.36c0 .142.095.332.048.474-.095.19-.237.474-.427.521-.142.048-.474-.237-.521-.379-.142-.474-.142-.947-.19-1.421-.19-2.796-2.322-5.45-5.023-6.113-.568-.142-1.184-.19-1.8-.284-.142 0-.237-.048-.38-.048-.33-.047-.568-.142-.568-.521.048-.427.38-.521.71-.521 3.65.142 6.777 2.227 7.82 5.97.19.758.284 1.564.379 2.322 0-.047 0 0-.048 0z" fill="#fff"/><path d="M17.646 10.757c1.61.048 2.843 1.422 2.748 2.938 0 .332-.142.616-.474.569-.19-.047-.379-.284-.569-.474-.047-.047 0-.142 0-.19-.236-1.232-.568-1.563-1.848-1.8-.331-.048-.568-.237-.568-.569.047-.332.284-.474.616-.474h.095z" fill="#fff"/></svg>